<svg xmlns="http://www.w3.org/2000/svg" id="Capa_1" enable-background="new 0 0 512 512" height="512" viewBox="0 0 512 512" width="512"><g><g><path d="m298.037 338.103h-18.08l-5.523-17.036c-2.65-8.174-9.91-13.451-18.5-13.451-.008 0-.017 0-.025 0-8.602.01-15.86 5.309-18.493 13.496l-5.463 16.991h-17.963c-8.598 0-15.863 5.286-18.507 13.468-2.645 8.181.151 16.72 7.122 21.752l14.574 10.523-5.576 17.11c-2.663 8.171.11 16.714 7.064 21.764 3.473 2.522 7.451 3.783 11.43 3.783 3.987-.001 7.976-1.268 11.453-3.801l14.559-10.607 14.446 10.5c6.955 5.054 15.94 5.051 22.889-.015 6.949-5.062 9.708-13.613 7.027-21.783l-5.562-16.951 14.545-10.546c6.954-5.042 9.734-13.579 7.084-21.748-2.65-8.17-9.912-13.449-18.501-13.449zm-20.773 33.834c-3.519 2.551-4.986 7.083-3.632 11.213l7.304 22.266-18.955-13.776c-3.509-2.552-8.263-2.549-11.768.007l-19.067 13.891 7.309-22.43c1.347-4.133-.13-8.662-3.654-11.206l-19.108-13.798h23.547c4.343 0 8.19-2.804 9.52-6.938l7.174-22.308 7.24 22.33c1.337 4.123 5.178 6.916 9.513 6.916l23.655.001z" fill="#8d3804"/><path d="m457.282 208.544c7.327-8.573 11.766-19.684 11.766-31.818v-7.81c0-27.045-22.002-49.048-49.047-49.048-8.335 0-16.187 2.096-23.068 5.779-6.647-4.466-13.976-7.817-21.659-9.964 7.332-8.574 11.774-19.688 11.774-31.828v-7.81c-.001-27.043-22.003-49.045-49.048-49.045s-49.047 22.002-49.047 49.047v7.81c0 12.139 4.442 23.252 11.773 31.826-7.682 2.146-15.007 5.5-21.653 9.968-6.882-3.685-14.736-5.781-23.072-5.781s-16.189 2.096-23.07 5.78c-6.647-4.466-13.974-7.819-21.657-9.965 7.332-8.574 11.774-19.688 11.774-31.827v-7.81c-.001-27.046-22.003-49.048-49.048-49.048s-49.047 22.002-49.047 49.047v7.81c0 12.138 4.442 23.252 11.773 31.826-7.682 2.146-15.005 5.501-21.652 9.968-6.882-3.685-14.737-5.782-23.074-5.782-27.045 0-49.047 22.003-49.047 49.048v7.81c0 12.134 4.439 23.245 11.766 31.818-31.522 8.812-54.719 37.772-54.719 72.068v21.065c0 5.522 4.477 10 10 10h35.577c5.523 0 10-4.478 10-10s-4.477-10-10-10h-25.577v-11.065c0-30.238 24.601-54.839 54.839-54.839h7.161v12.599c0 5.522 4.477 10 10 10s10-4.478 10-10v-12.599h7.161c30.238 0 54.839 24.601 54.839 54.839v11.065h-28.423c-5.523 0-10 4.478-10 10s4.477 10 10 10h27.446c-11.775 17.686-18.648 38.902-18.648 61.696 0 61.551 50.075 111.626 111.625 111.626s111.625-50.075 111.625-111.625c0-22.794-6.873-44.01-18.648-61.696h153.023c5.523 0 10-4.478 10-10v-21.065c0-34.297-23.197-63.257-54.718-72.07zm-66.329-39.627c0-16.017 13.031-29.048 29.047-29.048s29.047 13.031 29.047 29.048v7.81c0 16.017-13.031 29.048-29.047 29.048s-29.047-13.031-29.047-29.048zm-82-92.87c0-16.017 13.03-29.047 29.047-29.047s29.047 13.03 29.047 29.047v7.81c0 16.017-13.031 29.048-29.047 29.048s-29.047-13.031-29.047-29.048zm-13.86 63.291c7.879-4.184 16.734-6.434 25.746-6.434h7.161v12.599c0 5.522 4.477 10 10 10s10-4.478 10-10v-12.599h7.161c9.157 0 17.902 2.201 25.764 6.411-6.253 8.233-9.973 18.49-9.973 29.602v7.81c0 12.134 4.439 23.245 11.766 31.818-19.042 5.324-35.033 17.999-44.718 34.768-9.685-16.77-25.676-29.444-44.718-34.768 7.327-8.573 11.766-19.684 11.766-31.818v-7.81c-.001-11.102-3.713-21.349-9.955-29.579zm-39.093 109.035c5.523 0 10-4.478 10-10v-12.599h7.161c30.238 0 54.839 24.601 54.839 54.839v7.537c-19.451-16.458-44.585-26.399-72-26.399s-52.549 9.94-72 26.399v-7.537c0-30.238 24.601-54.839 54.839-54.839h7.161v12.599c0 5.523 4.477 10 10 10zm-29.047-79.456c0-16.017 13.031-29.048 29.047-29.048s29.047 13.031 29.047 29.048v7.81c0 16.017-13.031 29.048-29.047 29.048s-29.047-13.031-29.047-29.048zm-82-92.87c0-16.017 13.03-29.047 29.047-29.047s29.047 13.03 29.047 29.047v7.81c0 16.017-13.031 29.048-29.047 29.048s-29.047-13.031-29.047-29.048zm-23.906 100.68c0 16.017-13.031 29.048-29.047 29.048s-29.047-13.031-29.047-29.048v-7.81c0-16.017 13.031-29.048 29.047-29.048s29.047 13.031 29.047 29.048zm8.235 31.817c7.327-8.573 11.766-19.684 11.766-31.818v-7.81c0-11.102-3.713-21.35-9.954-29.579 7.879-4.184 16.733-6.434 25.746-6.434h7.16v12.599c0 5.522 4.477 10 10 10s10-4.478 10-10v-12.599h7.161c9.158 0 17.903 2.201 25.764 6.41-6.253 8.233-9.973 18.49-9.973 29.603v7.81c0 12.134 4.439 23.245 11.766 31.818-19.042 5.324-35.033 17.999-44.718 34.768-9.685-16.769-25.676-29.444-44.718-34.768zm126.718 256.456c-50.522 0-91.625-41.103-91.625-91.625 0-50.521 41.103-91.624 91.625-91.624s91.625 41.103 91.625 91.624c0 50.522-41.103 91.625-91.625 91.625zm236-173.321h-144v-11.065c0-30.238 24.601-54.839 54.839-54.839h7.161v12.599c0 5.522 4.477 10 10 10s10-4.478 10-10v-12.599h7.161c30.238 0 54.839 24.601 54.839 54.839z" fill="#8d3804"/><circle cx="90.58" cy="301.679" r="10" fill="#8d3804"/></g></g></svg>