<svg xmlns="http://www.w3.org/2000/svg" xmlns:xlink="http://www.w3.org/1999/xlink" version="1.1" id="Layer_1" x="0px" y="0px" viewBox="0 0 512 512" style="enable-background:new 0 0 512 512;" xml:space="preserve" width="512" height="512">
<g id="XMLID_939_">
	<g id="XMLID_585_">
		<path id="XMLID_913_" d="M128.3,290.06c-1.86,1.86-2.93,4.431-2.93,7.07c0,2.63,1.07,5.21,2.93,7.07    c1.87,1.859,4.45,2.93,7.08,2.93s5.2-1.07,7.07-2.93c1.86-1.86,2.93-4.44,2.93-7.07c0-2.64-1.07-5.21-2.93-7.07    c-1.87-1.87-4.44-2.93-7.07-2.93C132.74,287.13,130.17,288.189,128.3,290.06z" fill="#8d3804"/>
		<path id="XMLID_914_" d="M10,307.127h85.375c5.523,0,10-4.478,10-10s-4.477-10-10-10H20V20h380v87.433c0,5.523,4.477,10,10,10    s10-4.477,10-10V10c0-5.523-4.477-10-10-10H10C4.477,0,0,4.477,0,10v287.127C0,302.649,4.477,307.127,10,307.127z" fill="#8d3804"/>
		<path id="XMLID_915_" d="M410,137.43c-2.63,0-5.21,1.07-7.07,2.93c-1.86,1.86-2.93,4.44-2.93,7.07c0,2.63,1.07,5.21,2.93,7.07    c1.86,1.86,4.44,2.93,7.07,2.93c2.63,0,5.21-1.07,7.07-2.93c1.86-1.86,2.93-4.44,2.93-7.07c0-2.63-1.07-5.21-2.93-7.07    S412.63,137.43,410,137.43z" fill="#8d3804"/>
		<path id="XMLID_947_" d="M484.5,252.855c6.156-7.661,9.851-17.38,9.851-27.95v-10.613c0-24.651-20.055-44.707-44.707-44.707    h-5.612c-24.651,0-44.707,20.056-44.707,44.707v10.613c0,7.75,1.985,15.045,5.469,21.406l-3.604-0.904    c-23.026-5.778-43.399-18.329-58.917-36.294c-5.139-5.949-12.292-9.455-20.142-9.871c-7.848-0.419-15.333,2.313-21.072,7.686    c-10.29,9.632-11.989,25.628-3.952,37.207l10.186,14.677c7.423,10.694,16.356,20.224,26.453,28.315H175.376    c-5.523,0-10,4.478-10,10s4.477,10,10,10h191.87c0.049,0,0.096-0.007,0.145-0.007l20.849,9.894v82.307V502c0,5.522,4.477,10,10,10    H502c5.523,0,10-4.478,10-10V399.32V293.707C512,275.26,500.612,259.43,484.5,252.855z M419.326,214.292    c0-13.624,11.083-24.707,24.707-24.707h5.612c13.623,0,24.707,11.083,24.707,24.707v10.613c0,13.442-10.793,24.404-24.168,24.693    h-6.689c-13.375-0.288-24.168-11.25-24.168-24.693V214.292z M492,492h-31.88v-41.34c0-5.522-4.477-10-10-10s-10,4.478-10,10V492    h-31.88v-82.68H492V492z M492,389.32h-83.761v-78.63c0-3.862-2.224-7.379-5.713-9.034l-33.728-16.006    c-18.078-8.579-33.664-21.804-45.074-38.243l-10.186-14.676c-2.42-3.487-1.909-8.303,1.19-11.203    c1.728-1.618,3.984-2.445,6.345-2.314c2.364,0.125,4.517,1.181,6.064,2.972c18.222,21.097,42.146,35.834,69.186,42.62    l17.902,4.492c0.795,0.2,1.613,0.301,2.434,0.301h26.834c0.18,0.002,0.358,0.014,0.539,0.014h5.612    c0.181,0,0.359-0.011,0.539-0.014h17.709c13.293,0,24.108,10.815,24.108,24.108V389.32z" fill="#8d3804"/>
		<path id="XMLID_997_" d="M294.119,409.169c5.24-7.519,8.325-16.647,8.325-26.487v-9.111c0-25.609-20.835-46.444-46.444-46.444    s-46.444,20.835-46.444,46.444v9.111c0,9.84,3.085,18.968,8.325,26.487c-18.147,0.541-34.13,9.819-43.881,23.772    c-9.751-13.953-25.734-23.23-43.881-23.772c5.24-7.519,8.325-16.647,8.325-26.487v-9.111c0-25.609-20.835-46.444-46.444-46.444    s-46.444,20.835-46.444,46.444v9.111c0,9.84,3.085,18.968,8.325,26.487C24.021,410.06,0,434.61,0,464.683V502    c0,5.522,4.477,10,10,10h164h164c5.523,0,10-4.478,10-10v-37.317C348,434.61,323.979,410.06,294.119,409.169z M65.556,373.571    c0-14.581,11.863-26.444,26.444-26.444s26.444,11.863,26.444,26.444v9.111c0,14.581-11.863,26.444-26.444,26.444    s-26.444-11.863-26.444-26.444V373.571z M164,492H20v-27.317c0-19.605,15.95-35.556,35.556-35.556h72.889    c19.605,0,35.556,15.95,35.556,35.556V492z M229.556,373.571c0-14.581,11.863-26.444,26.444-26.444s26.444,11.863,26.444,26.444    v9.111c0,14.581-11.863,26.444-26.444,26.444s-26.444-11.863-26.444-26.444V373.571z M328,492H184v-27.317    c0-19.605,15.95-35.556,35.556-35.556h72.889c19.605,0,35.556,15.95,35.556,35.556V492z" fill="#8d3804"/>
		<path id="XMLID_1022_" d="M354.333,75.408h-29.625c-5.523,0-10,4.477-10,10s4.477,10,10,10h29.625c5.523,0,10-4.477,10-10    S359.856,75.408,354.333,75.408z" fill="#8d3804"/>
		<path id="XMLID_1024_" d="M354.333,115.408h-73.006c-5.523,0-10,4.477-10,10s4.477,10,10,10h73.006c5.523,0,10-4.477,10-10    S359.856,115.408,354.333,115.408z" fill="#8d3804"/>
		<path id="XMLID_1100_" d="M227.44,170.453h7.111c5.523,0,10-4.477,10-10c0-59.426-48.347-107.773-107.774-107.773    c-5.523,0-10,4.477-10,10v7.111c-45.608,4.996-81.213,43.747-81.213,90.663c0,50.295,40.918,91.213,91.213,91.213    C183.693,251.667,222.444,216.061,227.44,170.453z M146.777,73.246c40.428,4.604,72.604,36.779,77.208,77.208h-77.208V73.246z     M126.777,136.311l-32.762-32.762c9.393-7.077,20.589-11.874,32.762-13.592V136.311z M136.777,231.667    c-39.267,0-71.213-31.946-71.213-71.213c0-16.035,5.331-30.846,14.309-42.762l49.833,49.833c0.001,0.001,0.002,0.001,0.003,0.002    c1.809,1.808,4.308,2.927,7.068,2.927h70.498C202.396,205.001,172.649,231.667,136.777,231.667z" fill="#8d3804"/>
	</g>
</g>















</svg>