<svg xmlns="http://www.w3.org/2000/svg" xmlns:xlink="http://www.w3.org/1999/xlink" id="Layer_1" enable-background="new 0 0 512 512" viewBox="0 0 512 512"><linearGradient id="SVGID_1_" gradientUnits="userSpaceOnUse" x1="256" x2="256" y1="15" y2="497.034" fill="#8d3804"><stop offset="0" stop-color="#8d3804" fill="#8d3804"/><stop offset="1" stop-color="#8d3804" fill="#8d3804"/></linearGradient><path d="m362.26 149.91c15.1 0 27.19-8.17 33.16-22.43 6.68-15.95 4.19-36.3-5.68-46.34-7.24-7.36-15.97-10.79-27.46-10.79-11.53 0-20.27 3.43-27.51 10.79-9.87 10.03-12.37 30.39-5.68 46.33 5.97 14.26 18.06 22.44 33.17 22.44zm-18.94-60.35c4.97-5.05 10.64-7.21 18.96-7.21 8.28 0 13.94 2.16 18.91 7.21 6.51 6.61 7.96 21.86 3.17 33.28-2.88 6.87-9.05 15.07-22.1 15.07s-19.23-8.19-22.11-15.07c-4.78-11.42-3.33-26.66 3.17-33.28zm-255.16 132.94c3.31 0 6-2.69 6-6v-5.72c0-23.88 17.9-43.31 39.9-43.31h30.35c.22 0 .43.01.65.02-6.41 11.4-9.77 24.16-9.77 37.43v14.62c0 3.31 2.69 6 6 6s6-2.69 6-6v-14.62c0-26.78 16.2-50.41 40.8-60.26l42.36 78.63c1.05 1.94 3.08 3.15 5.28 3.15s4.24-1.21 5.28-3.15l42.36-78.63c24.6 9.84 40.8 33.47 40.8 60.26v14.62c0 3.31 2.69 6 6 6s6-2.69 6-6v-14.62c0-13.27-3.36-26.03-9.77-37.43.22 0 .44-.02.65-.02h30.35c22 0 39.9 19.43 39.9 43.31v5.72c0 3.31 2.69 6 6 6s6-2.69 6-6v-5.72c0-30.5-23.28-55.31-51.9-55.31h-30.35c-2.81 0-5.62.25-8.38.73-9.46-11.49-22.23-20.18-36.34-24.64-2.75-.87-5.72.34-7.09 2.88l-22.46 41.69-4.17-14.88c-.54-1.93-.24-3.67.93-5.3l13.2-18.46c1.31-1.83 1.48-4.23.46-6.23-1.03-2-3.09-3.26-5.34-3.26h-44.26c-2.25 0-4.31 1.26-5.34 3.26s-.85 4.41.46 6.23l13.22 18.49c1.16 1.62 1.47 3.35.94 5.27l-4.12 15.03-22.54-41.84c-1.37-2.54-4.34-3.74-7.09-2.88-14.11 4.46-26.88 13.15-36.34 24.64-2.76-.48-5.57-.72-8.38-.72h-30.35c-28.62 0-51.9 24.81-51.9 55.31v5.72c0 3.31 2.69 5.99 6 5.99zm163.54-73.51-6.44-9h20.96l-6.41 8.96c-3.28 4.58-4.25 10.1-2.73 15.52l7.53 26.85-8.87 16.46-8.74-16.22 7.45-27.16c1.48-5.38.51-10.85-2.75-15.41zm-102.46.92c15.1 0 27.19-8.17 33.16-22.43 6.68-15.95 4.19-36.3-5.68-46.33-7.24-7.36-15.97-10.79-27.46-10.79-11.53 0-20.27 3.43-27.51 10.79-9.87 10.03-12.37 30.39-5.68 46.33 5.97 14.25 18.06 22.43 33.17 22.43zm-18.94-60.35c4.97-5.05 10.64-7.21 18.96-7.21 8.28 0 13.94 2.16 18.91 7.21 6.51 6.61 7.96 21.86 3.17 33.28-2.88 6.87-9.05 15.07-22.1 15.07s-19.23-8.19-22.11-15.07c-4.79-11.42-3.34-26.66 3.17-33.28zm125.45 35.4c20.76 0 37.38-11.25 45.6-30.87 9.3-22.2 5.93-50.42-7.67-64.25-9.96-10.13-22-14.84-37.9-14.84-15.94 0-28.01 4.72-37.97 14.84-13.6 13.83-16.98 42.05-7.68 64.25 8.23 19.62 24.85 30.87 45.62 30.87zm-29.38-86.7c7.76-7.89 16.56-11.26 29.41-11.26 12.63 0 21.68 3.47 29.34 11.26 10.12 10.29 12.48 33.73 5.16 51.2-4.49 10.72-14.13 23.5-34.53 23.5-20.41 0-30.05-12.78-34.55-23.51-7.31-17.46-4.95-40.91 5.17-51.19zm248.76 298.21-65.73-106.73c-5.47-8.89-17.16-11.67-26.05-6.2l-29.59 18.2c-4.3 2.64-7.31 6.81-8.48 11.74s-.36 10.01 2.28 14.31l.27.44c-1.49.45-3.01.91-4.51 1.36-4.15 1.26-8.45 2.56-11.91 3.52-2.33.64-4.31.63-6.62-.05l-29.21-8.58c-23.4-6.87-52.49 6.51-69.89 17.89-12.06-4.15-24.18-6.02-36.96-5.69l-25.06-9.63.51-.84c2.63-4.3 3.42-9.39 2.23-14.31-1.19-4.93-4.22-9.09-8.52-11.71l-29.65-18.1c-8.91-5.44-20.59-2.62-26.03 6.29l-65.37 106.93c-2.63 4.3-3.42 9.39-2.23 14.31 1.19 4.93 4.22 9.09 8.52 11.71l29.65 18.1c3.07 1.88 6.48 2.77 9.84 2.77 6.39 0 12.63-3.22 16.19-9.06l3.06-5c5.01 8.2 11.46 16.57 19.27 25.01l-6.86 11.89c-3.22 5.58-4.07 12.1-2.39 18.35s5.68 11.47 11.26 14.69c3.8 2.19 7.94 3.22 12.04 3.22 1.91 0 3.8-.24 5.65-.68.42 7.95 4.76 15.44 12.11 19.67 3.79 2.18 7.93 3.21 12.02 3.21 3.43 0 6.81-.74 9.93-2.13 1.74 6.09 5.69 11.17 11.16 14.32 3.79 2.18 7.93 3.21 12.02 3.21 5.28 0 10.46-1.73 14.7-4.94 1.77 4.8 5.32 8.75 10.65 11.81 3.79 2.18 7.93 3.21 12.02 3.21 7.99 0 15.77-3.96 20.35-11.05 3.04 2.09 8.05 5.69 16.31 11.86l.78.58c6.22 4.63 13.15 6.64 19.72 6.64 9.25 0 17.8-3.98 22.71-10.26 3.06-3.91 4.38-8.2 4.05-12.45 10.26.26 19.42-5 24.55-12.26 3.63-5.14 5.06-10.73 4.39-15.98 10.5.17 19.55-5.11 24.17-12.2 3.02-4.63 4.1-9.67 3.34-14.53 6.99-.47 13.46-4.06 17.2-9.03 3.3-4.38 5.16-10.86 2.5-17.6 7.58-2.01 14.61-6.38 19.19-12.32.56-.72 1.06-1.45 1.53-2.19 3.57 3.44 8.33 5.3 13.17 5.3 3.38 0 6.81-.9 9.89-2.8l29.59-18.2c4.3-2.64 7.31-6.81 8.48-11.74 1.21-4.91.4-9.99-2.24-14.28zm-386.56 30.42c-2 3.27-6.28 4.3-9.54 2.3l-29.65-18.1c-1.57-.96-2.67-2.48-3.11-4.29s-.15-3.67.81-5.24l65.38-106.95c1.31-2.14 3.6-3.32 5.94-3.32 1.23 0 2.48.33 3.61 1.02l29.65 18.1c1.57.96 2.67 2.48 3.11 4.29s.15 3.67-.81 5.24zm40.57 60.79c-2.8-1.62-4.82-4.24-5.66-7.4-.85-3.16-.42-6.44 1.19-9.24l25.58-44.35c2.26-3.91 6.37-6.1 10.6-6.1 2.06 0 4.16.52 6.07 1.63 2.8 1.62 4.82 4.24 5.66 7.4.84 3.14.43 6.41-1.17 9.2-.01.01-.02.03-.02.04l-25.58 44.35c-3.36 5.82-10.84 7.83-16.67 4.47zm29.79 22.22c-5.35-3.08-7.57-9.89-5.06-15.53l.14-.32c1.61-3.62 2.09-4.64 2.23-4.93l25.53-44.27c.55-.87 3.85-5.81 4.29-6.44 3.6-5.04 10.63-6.57 16.01-3.48 2.81 1.61 4.82 4.24 5.67 7.4.85 3.15.43 6.43-1.18 9.23l-29.42 51.12c-.53.92-.99 1.87-1.39 2.84l-.18-.1c-3.34 5.82-10.81 7.83-16.64 4.48zm33.12 15.4c-2.81-1.61-4.82-4.24-5.67-7.4s-.43-6.44 1.18-9.24l29.42-51.11c0-.01.01-.01.01-.02l1.56-2.7c2.26-3.92 6.37-6.11 10.6-6.11 2.06 0 4.15.52 6.06 1.62 2.81 1.61 4.82 4.24 5.67 7.4s.43 6.44-1.18 9.24l-30.98 53.83c-3.36 5.83-10.84 7.85-16.67 4.49zm37.37 10.08c-5.28-3.03-9.18-7.89-2.15-22.76l15.22-26.44c2.59-4.5 12.2-7.49 17.74-4.31 2.81 1.61 4.82 4.24 5.67 7.39s.43 6.44-1.18 9.24l-18.64 32.38c-3.35 5.84-10.83 7.86-16.66 4.5zm154.04-72.27c-2.98 3.95-9.66 5.95-14.85 2.62-8.28-5.3-16.76-10.54-24.96-15.6-4.17-2.57-8.33-5.15-12.49-7.74-2.81-1.75-6.51-.89-8.27 1.92-1.75 2.81-.89 6.51 1.92 8.27 4.17 2.6 8.35 5.18 12.53 7.76 7.25 4.48 14.72 9.09 22.04 13.75 4.89 4.08 5.98 8.79 3.06 13.26-3.75 5.76-12.95 9.25-22.71 4.55l-30.17-21.16c-2.71-1.9-6.46-1.24-8.36 1.47s-1.25 6.46 1.47 8.36l30.35 21.28c5.94 5.02 2.77 10.97 1.12 13.31-3.69 5.22-12.98 10.67-23.56 4.44l-19.03-13.87c-2.68-1.95-6.43-1.36-8.38 1.31-1.95 2.68-1.36 6.43 1.32 8.38l19.11 13.92c6.14 5.13 3.26 8.82 2.3 10.04-4.26 5.44-16.14 8.59-25.82 1.39l-.77-.58c-7.97-5.95-13.64-10.06-17.45-12.64l13.26-23.04c3.21-5.58 4.05-12.1 2.37-18.35s-5.69-11.46-11.28-14.67c-4.18-2.4-9.19-3.27-14.15-2.85 1.52-4.49 1.68-9.33.41-14.02-1.69-6.25-5.69-11.46-11.28-14.67-6.97-4.01-15.12-4.14-21.95-1.09-1.74-6.09-5.69-11.17-11.17-14.32-7.85-4.51-17.16-4.17-24.46.2-1.92-5.46-5.65-10.01-10.69-12.91-11.56-6.66-26.38-2.67-33.05 8.88l-12.43 21.54c-7.84-8.81-14.02-17.45-18.42-25.79l48.29-79 28.24 10.86c.76.29 1.56.43 2.37.4 8.87-.32 17.38.56 25.77 2.64-5.51 4.83-10.85 10.95-15.91 18.28-4.51 6.54-5.05 14.66-1.43 21.74 3.62 7.07 10.52 11.4 18.46 11.57 16.76.37 24.98-8.09 33.71-17.05.89-.92 1.8-1.85 2.74-2.79 8.21 2.79 16.27 1.65 24.05-3.39l56.24 39.17 49.43 33.74c2.87 2.58 5.52 6.45 2.48 10.48zm21.78-30.03c-4.04 5.23-11.65 8.81-18.6 8.87l-48.28-32.95-59.7-41.58c-2.2-1.53-5.15-1.42-7.23.28-6.47 5.29-12.3 6.21-18.9 2.96-2.26-1.11-4.98-.7-6.8 1.05-2.09 2-3.98 3.94-5.81 5.81-8.02 8.24-13.3 13.64-24.84 13.42-3.56-.08-6.42-1.87-8.04-5.04s-1.4-6.53.62-9.46c5.53-8.01 11.32-14.33 17.2-18.76.03-.03.07-.05.1-.08 18.56-14.6 48.42-27.14 67.23-21.62l29.2 8.58c4.43 1.3 8.76 1.34 13.21.1 3.59-1 7.96-2.32 12.18-3.59 2.54-.77 5.13-1.55 7.55-2.26l53.18 86.35c.77 3.09-.78 5.98-2.27 7.92zm60.5-25.09c-.43 1.81-1.53 3.34-3.1 4.3l-29.59 18.2c-3.26 2.01-7.54.98-9.55-2.27l-65.73-106.73c-.96-1.57-1.26-3.42-.83-5.23s1.53-3.34 3.1-4.3l29.59-18.2c3.26-2 7.54-.98 9.55 2.27l65.73 106.73c.96 1.57 1.26 3.42.83 5.23z" fill="url(#SVGID_1_)"/></svg>