<svg xmlns="http://www.w3.org/2000/svg" id="Bahan_copy" height="512" viewBox="0 0 64 64" width="512" data-name="Bahan copy"><g fill="#8d3804"><path d="m21.915 26.82648 1.2793 5.64032a2.71279 2.71279 0 0 0 5.3457-.78673l-.31694-4.575a19.64528 19.64528 0 0 1 7.546 3.44513 2.63606 2.63606 0 0 0 2.63326 2.63336 2.6723 2.6723 0 0 0 2.94432-2.63333v-3.66745a4.14764 4.14764 0 0 0 -.00012-8.03722l.00012-4.21473c-.03743-3.50272-5.53962-3.50943-5.57763.00008-1.80912 1.36106-5.863 3.70477-10.10252 3.67477l-3.32669-.00005a2.83443 2.83443 0 0 0 -2.8398 2.82279v2.918a2.82444 2.82444 0 0 0 2.415 2.78006zm4.62988 4.99188a.71115.71115 0 0 1 -1.40039.2065l-1.16931-5.15572c.40076.01592 1.85215-.01858 2.22761.01132zm15.95512-8.95606a2.14988 2.14988 0 0 1 -1.15332 1.89795v-3.79254a2.14546 2.14546 0 0 1 1.15332 1.89459zm-4.731-8.23144a.63412.63412 0 0 1 .6333-.6333c.443-.05389.94346.11079.94432.63334v15.91939a.63412.63412 0 0 1 -.6333.6333c-.443.05389-.94346-.11078-.94432-.63334zm-2 13.48724a20.33929 20.33929 0 0 0 -9.03418-3.2182v-4.62854a20.40013 20.40013 0 0 0 9.03418-3.21448zm-14.269-6.98968a.83253.83253 0 0 1 .83984-.82276h2.395v4.56348h-2.395a.83253.83253 0 0 1 -.83984-.82275z" fill="#8d3804"/><path d="m56.08105 11.648h-7.66894v-3.648a4.00458 4.00458 0 0 0 -4-4h-24.82422a4.00458 4.00458 0 0 0 -4 4v3.648h-7.66889a2.93014 2.93014 0 0 0 -2.92676 2.92676v30.15913a2.93013 2.93013 0 0 0 2.92676 2.92675h19.228v7.40046l-7.64746 3.00824a1.00012 1.00012 0 1 0 .73242 1.86132s10.00745-3.94084 10.01804-3.94091c1.701-.77833 3.61643-.02226 5.20865.67244.01173.0045 8.55354 3.3383 8.67512 3.3383a1.00369 1.00369 0 0 0 .36664-1.93117l-7.6474-3.008v-7.40068h19.228a2.93013 2.93013 0 0 0 2.92676-2.92675v-30.15918a2.93014 2.93014 0 0 0 -2.92672-2.92671zm-7.66894 7.07837 3.606-.02905.03662 21.87744h-3.64262zm-30.82422-10.72637a2.002 2.002 0 0 1 2-2h24.82422a2.002 2.002 0 0 1 2 2v32.57471h-28.82422zm-5.606 32.61133-.03662-21.87695h3.64258v21.84826zm22.87111 13.66327a6.94772 6.94772 0 0 0 -5.70606-.00014v-6.61382h5.70606zm22.15478-9.54071a.92752.92752 0 0 1 -.92676.92675h-48.16202a.92752.92752 0 0 1 -.92676-.92675v-30.15918a.92753.92753 0 0 1 .92676-.92671h7.66894v3.08643h-3.64263a1.9653 1.9653 0 0 0 -1.96338 1.96289v21.91401a1.96572 1.96572 0 0 0 1.96338 1.96338c1.8017-.00056 40.10692.00049 40.10938 0a1.96572 1.96572 0 0 0 1.96338-1.96338v-21.91406a1.9653 1.9653 0 0 0 -1.96338-1.96289h-3.64258v-3.08638h7.66894a.92753.92753 0 0 1 .92676.92676z" fill="#8d3804"/></g></svg>