<svg xmlns="http://www.w3.org/2000/svg" id="Capa_1" enable-background="new 0 0 511.956 511.956" viewBox="0 0 511.956 511.956"><g><g><path d="m382.728 149.914h62.149c11.123 0 20.173-9.05 20.173-20.173 0-16.427-14.019-30.572-25.789-38.615 2.888-4.612 4.565-10.056 4.565-15.887v-10.94c0-16.554-13.468-30.021-30.022-30.021s-30.022 13.468-30.022 30.021v10.939c0 5.831 1.677 11.276 4.565 15.887-11.77 8.045-25.792 22.193-25.792 38.615 0 11.124 9.049 20.174 20.173 20.174zm16.053-85.615c0-8.283 6.739-15.021 15.022-15.021s15.022 6.738 15.022 15.021v10.939c0 8.283-6.739 15.022-15.022 15.022s-15.022-6.739-15.022-15.022zm.859 37.403c4.222 2.269 9.044 3.559 14.163 3.559s9.941-1.291 14.162-3.559c8.875 5.452 22.084 16.895 22.084 28.038 0 2.853-2.32 5.173-5.173 5.173h-62.149c-2.853 0-5.173-2.32-5.173-5.173.001-11.137 13.21-22.583 22.086-28.038z" fill="#8d3804"/><path d="m123.261 407.126c2.888-4.612 4.565-10.056 4.565-15.887v-10.939c0-16.554-13.468-30.021-30.022-30.021s-30.022 13.468-30.022 30.021v10.939c0 5.831 1.677 11.276 4.565 15.887-11.77 8.045-25.792 22.193-25.792 38.615 0 11.123 9.05 20.173 20.173 20.173h62.149c11.123 0 20.173-9.05 20.173-20.173 0-16.427-14.019-30.573-25.789-38.615zm-40.48-26.827c0-8.283 6.739-15.021 15.022-15.021s15.022 6.738 15.022 15.021v10.939c0 8.283-6.739 15.022-15.022 15.022s-15.022-6.739-15.022-15.022zm46.096 70.615h-62.149c-2.853 0-5.173-2.32-5.173-5.173 0-11.138 13.209-22.584 22.086-28.039 4.222 2.269 9.044 3.559 14.163 3.559s9.941-1.291 14.162-3.559c8.875 5.452 22.084 16.895 22.084 28.038 0 2.853-2.321 5.174-5.173 5.174z" fill="#8d3804"/><path d="m330.242 358.828v15h32.71v-110.607l-40.5-40.5v-43.894h-40.5v-40h-135v41.65h15v-26.65h105v25h-79.5v100h-25.5v-83.35h-15v98.35h40.5v40h40.5v40h87.29v-15h-72.29v-125h65v40h40v85h-17.71zm-102.29-140v100h-25.5v-125h105v25zm95 25.606 14.394 14.394h-14.394z" fill="#8d3804"/><path d="m90.607 241.735-10.607-10.608-28.217 28.218c-.015-1.008-.031-2.016-.031-3.018 0-112.32 91.38-203.7 203.7-203.7 23.021 0 45.519 3.802 66.995 11.286-3.969 10.61-6.145 22.087-6.145 34.065 0 53.762 43.738 97.5 97.5 97.5s97.5-43.738 97.5-97.5-43.738-97.5-97.5-97.5c-36.434 0-68.259 20.091-84.992 49.772-23.495-8.371-48.136-12.623-73.357-12.623-58.415 0-113.336 22.749-154.644 64.057s-64.057 96.229-64.057 154.644c0 .317.008.637.01.955l-26.154-26.155-10.608 10.607 45.304 45.303zm323.195-226.257c45.49 0 82.5 37.01 82.5 82.5s-37.01 82.5-82.5 82.5-82.5-37.01-82.5-82.5 37.01-82.5 82.5-82.5z" fill="#8d3804"/><path d="m511.956 271.127-45.304-45.303-45.304 45.303 10.607 10.607 27.178-27.179c.005.59.019 1.183.019 1.771 0 112.32-91.38 203.7-203.7 203.7-22.885 0-45.252-3.759-66.61-11.159 4.168-10.839 6.46-22.601 6.46-34.891 0-53.762-43.738-97.5-97.5-97.5s-97.5 43.738-97.5 97.5 43.738 97.5 97.5 97.5c36.114 0 67.705-19.736 84.553-48.989 23.414 8.316 47.969 12.539 73.097 12.539 58.415 0 113.336-22.749 154.644-64.057s64.057-96.229 64.057-154.644c0-.601-.014-1.206-.019-1.809l27.215 27.216zm-414.154 225.351c-45.49 0-82.5-37.01-82.5-82.5s37.01-82.5 82.5-82.5 82.5 37.01 82.5 82.5-37.01 82.5-82.5 82.5z" fill="#8d3804"/></g><g><path d="m272.952 300.828h15v15h-15z" fill="#8d3804"/><path d="m302.952 300.828h15v15h-15z" fill="#8d3804"/></g></g><g/><g/><g/><g/><g/><g/><g/><g/><g/><g/><g/><g/><g/><g/><g/></svg>