<svg xmlns="http://www.w3.org/2000/svg" viewBox="0 0 64 64" width="512" height="512"><g id="Paticipatation-2" data-name="Paticipatation"><path d="M61.938,48.8l-4.24-4.25a1,1,0,0,0-.708-.294h0a1,1,0,0,0-.708.3l-.706.706-.512-.512L53.72,39.368a1.008,1.008,0,0,0-.262-.465L43,28.437V16a1,1,0,0,0-.143-.515L40,10.723V10h1a1,1,0,0,0,1-1V3a1,1,0,0,0-1-1H25a1,1,0,0,0-1,1V9a1,1,0,0,0,1,1v.586l-3.707,3.707A1,1,0,0,0,21,15V27a2.969,2.969,0,0,0,.252,1.184L10.542,38.9a1.008,1.008,0,0,0-.262.465L8.937,44.749l-.515.514-.706-.706a1,1,0,0,0-1.414,0L2.059,48.8a1,1,0,0,0,0,1.414L13.373,61.527a1,1,0,0,0,1.414,0l4.242-4.243a1,1,0,0,0,0-1.411l.413-.413H24.69a1,1,0,0,0,.707-.293L32,48.556l6.6,6.611a1,1,0,0,0,.707.293h5.246l.415.415,0,0a1,1,0,0,0,0,1.409l4.24,4.24a1,1,0,0,0,1.414,0l11.31-11.31A1,1,0,0,0,61.938,48.8ZM26,4H40V8H26Zm.707,7.707A1,1,0,0,0,27,11V10H38v1a1,1,0,0,0,.143.515L41,16.277V26.9a3.126,3.126,0,0,0-2,.012V25H37v3.1l-.513-.513A2.987,2.987,0,0,0,35,26.773V25H33v2.036a2.841,2.841,0,0,0-1.332,1.388l-.131-.131A2.934,2.934,0,0,0,31,27.874V25H29v2.452a2.989,2.989,0,0,0-1.707.841,2.942,2.942,0,0,0-.444.585,2.946,2.946,0,0,0-.2-.5A2.931,2.931,0,0,0,27,27V21H25v5.9a3.009,3.009,0,0,0-2,0V15.414ZM14.08,59.406l-9.9-9.9,2.829-2.828,9.9,9.9ZM24.275,53.46H19.03a1,1,0,0,0-.707.293l-.705.7L9.837,46.677l.71-.71a1.006,1.006,0,0,0,.263-.465l1.343-5.381,11.1-11.115a1.011,1.011,0,0,1,1.409-.024c.016.019.031.038.048.056a.991.991,0,0,1-.032,1.375h0l-4.95,4.95,1.414,1.414,4.95-4.95h0a3.016,3.016,0,0,0,.446-.589,2.962,2.962,0,0,0,.749,1.3l.125.125a3.024,3.024,0,0,0-.835.581,2.984,2.984,0,0,0-.847,1.777l-.433.433-2.74,2.74,1.414,1.414,2.383-2.383a2.924,2.924,0,0,0,.223.263l1.175,1.171-2.365,2.365,1.414,1.414,2.367-2.367.132.131a.893.893,0,0,0,.077.086l1.2,1.2-5.19,5.185,1.414,1.414,2.6-2.6a2.975,2.975,0,0,0,.717,1.189l.463.464Zm15.45,0-8.188-8.2a1,1,0,0,1,0-1.416A.891.891,0,0,1,32,43.59a.984.984,0,0,0,.242-.03.984.984,0,0,1,.689.266l0,0h0l4.258,4.258,1.414-1.414-10.62-10.61a.961.961,0,0,1-.279-.658,1,1,0,0,1,.956-1.044,1.054,1.054,0,0,0,.113.009,1.025,1.025,0,0,1,.636.287l7.78,7.78,1.414-1.414-9.9-9.9a1,1,0,0,1,0-1.416.99.99,0,0,1,.713-.287.955.955,0,0,1,.3.05.921.921,0,0,1,.4.237l9.9,9.9,1.414-1.414L33.648,30.4a.96.96,0,0,1-.279-.66A1,1,0,0,1,33.657,29a1.077,1.077,0,0,1,.588-.287.527.527,0,0,1,.115-.01,1.006,1.006,0,0,1,.713.3l7.78,7.78,1.414-1.414-4.95-4.95a1,1,0,0,1,0-1.416,1.022,1.022,0,0,1,1.416,0L51.847,40.121,53.19,45.5a1.006,1.006,0,0,0,.263.465l.708.708L46.38,54.456l-.7-.7a1,1,0,0,0-.707-.293Zm10.2,5.946-2.831-2.831,9.9-9.9,2.824,2.832Z" fill="#8d3804"/><path d="M19.65,17.561l-1.3-1.52a21.031,21.031,0,0,0-7.115,19.108l1.977-.3A19.189,19.189,0,0,1,13,32,18.987,18.987,0,0,1,19.65,17.561Z" fill="#8d3804"/><path d="M33.049,52.975l-.1-2c-.63.031-1.272.031-1.9,0l-.1,2c.347.016.7.025,1.049.025S32.7,52.991,33.049,52.975Z" fill="#8d3804"/><path d="M52.9,34.1c.069-.691.1-1.4.1-2.1a20.986,20.986,0,0,0-7.35-15.959l-1.3,1.52A18.987,18.987,0,0,1,51,32c0,.636-.032,1.276-.094,1.9Z" fill="#8d3804"/><path d="M9.5,36.792A23.039,23.039,0,0,1,22.417,11.085l-.834-1.817a25.042,25.042,0,0,0-14.04,27.94Z" fill="#8d3804"/><path d="M28.166,54.682l-.332,1.972a25.253,25.253,0,0,0,8.332,0l-.332-1.972A23.38,23.38,0,0,1,28.166,54.682Z" fill="#8d3804"/><path d="M55,32a23.126,23.126,0,0,1-.5,4.792l1.957.416A25.044,25.044,0,0,0,44.5,10.345l-1,1.732A23.087,23.087,0,0,1,55,32Z" fill="#8d3804"/></g></svg>