<svg xmlns="http://www.w3.org/2000/svg" id="Capa_1" enable-background="new 0 0 512 512" height="512" viewBox="0 0 512 512" width="512"><g><g><g><g><g><g><path d="m283.334 424.472c5.671-6.428 9.122-14.858 9.122-24.083 0-20.102-16.354-36.456-36.456-36.456s-36.456 16.354-36.456 36.456c0 9.226 3.452 17.657 9.124 24.085-14.685 9.269-23.813 25.467-23.813 43.236 0 4.143 3.358 7.5 7.5 7.5s7.5-3.357 7.5-7.5c0-14.561 8.666-27.635 22.078-33.308.151-.064.293-.139.438-.212 4.214 1.705 8.811 2.653 13.629 2.653 4.81 0 9.4-.945 13.608-2.645.075.034.145.073.221.105 13.556 5.618 22.315 18.73 22.315 33.406 0 4.143 3.357 7.5 7.5 7.5s7.5-3.357 7.5-7.5c.001-17.804-9.119-33.976-23.81-43.237zm-48.79-24.083c0-11.831 9.625-21.456 21.456-21.456s21.456 9.625 21.456 21.456c0 11.83-9.625 21.455-21.456 21.455s-21.456-9.625-21.456-21.455z" fill="#8d3804"/></g></g></g></g></g><g><path d="m51.145 109.701c4.808 0 9.397-.944 13.604-2.643.051.022.098.05.15.071 13.603 5.603 22.392 18.728 22.392 33.438 0 4.143 3.358 7.5 7.5 7.5s7.5-3.357 7.5-7.5c0-17.815-9.116-33.98-23.81-43.239 5.67-6.428 9.121-14.858 9.121-24.083 0-20.102-16.354-36.455-36.456-36.455s-36.456 16.354-36.456 36.455c0 9.227 3.452 17.658 9.124 24.086-14.686 9.268-23.814 25.467-23.814 43.236 0 4.143 3.358 7.5 7.5 7.5s7.5-3.357 7.5-7.5c0-14.562 8.666-27.635 22.078-33.308.151-.064.293-.139.438-.212 4.213 1.706 8.811 2.654 13.629 2.654zm0-57.911c11.831 0 21.456 9.625 21.456 21.455 0 11.831-9.625 21.456-21.456 21.456s-21.456-9.625-21.456-21.456c0-11.83 9.625-21.455 21.456-21.455z" fill="#8d3804"/><path d="m204.855 140.567c0 4.143 3.358 7.5 7.5 7.5s7.5-3.357 7.5-7.5c0-14.562 8.666-27.635 22.078-33.308.151-.064.293-.139.438-.212 4.214 1.705 8.811 2.653 13.629 2.653 4.807 0 9.395-.944 13.601-2.642.046.02.089.045.136.064 13.612 5.598 22.407 18.726 22.407 33.444 0 4.143 3.357 7.5 7.5 7.5s7.5-3.357 7.5-7.5c0-17.818-9.115-33.981-23.809-43.24 5.67-6.428 9.121-14.858 9.121-24.083 0-20.102-16.354-36.455-36.456-36.455s-36.456 16.354-36.456 36.455c0 9.227 3.452 17.658 9.124 24.086-14.685 9.27-23.813 25.468-23.813 43.238zm51.145-88.777c11.831 0 21.456 9.625 21.456 21.455 0 11.831-9.625 21.456-21.456 21.456s-21.456-9.625-21.456-21.456c0-11.83 9.625-21.455 21.456-21.455z" fill="#8d3804"/><path d="m488.191 97.327c5.67-6.428 9.12-14.857 9.12-24.082 0-20.102-16.354-36.455-36.455-36.455s-36.456 16.354-36.456 36.455c0 9.227 3.452 17.658 9.124 24.086-14.685 9.268-23.813 25.465-23.813 43.236 0 4.143 3.357 7.5 7.5 7.5s7.5-3.357 7.5-7.5c0-14.562 8.666-27.635 22.077-33.308.151-.064.293-.139.438-.212 4.214 1.705 8.812 2.653 13.629 2.653 4.807 0 9.396-.944 13.602-2.643.046.02.088.044.135.063 13.612 5.6 22.408 18.728 22.408 33.447 0 4.143 3.357 7.5 7.5 7.5s7.5-3.357 7.5-7.5c0-17.817-9.115-33.981-23.809-43.24zm-48.792-24.082c0-11.83 9.625-21.455 21.456-21.455 11.83 0 21.455 9.625 21.455 21.455 0 11.831-9.625 21.456-21.455 21.456-11.831 0-21.456-9.625-21.456-21.456z" fill="#8d3804"/><path d="m462.079 165.712c-.008 0-.016 0-.024 0-4.131 0-7.486 3.343-7.499 7.477l-.162 52.19c-.021 6.88-5.624 12.462-12.496 12.462-.014 0-.026 0-.039 0l-35.383-.122c-3.369-20.139-20.911-35.54-41.992-35.54-20.921 0-38.354 15.17-41.909 35.085h-60.656v-65.33c0-4.143-3.357-7.5-7.5-7.5-4.142 0-7.5 3.357-7.5 7.5v65.33h-57.492c-3.555-19.915-20.989-35.085-41.91-35.085-20.762 0-38.091 14.939-41.828 34.63l-35.72-.123c-3.339-.011-6.474-1.32-8.828-3.688s-3.644-5.511-3.634-8.85l.162-52.191c.013-4.143-3.334-7.511-7.477-7.523-.008 0-.016 0-.024 0-4.131 0-7.487 3.343-7.5 7.477l-.162 52.191c-.022 7.346 2.816 14.26 7.994 19.47 5.178 5.211 12.075 8.093 19.418 8.115l35.607.122c2.96 17.695 16.864 31.72 34.496 34.866l.188 115.705c.012 7.362 2.894 14.274 8.116 19.464 5.19 5.157 12.068 7.992 19.379 7.992h.135l20.055-.095c4.142-.02 7.484-3.394 7.464-7.535-.02-4.131-3.374-7.465-7.499-7.465-.012 0-.024 0-.037 0l-20.055.095c-3.322.036-6.496-1.273-8.87-3.633-2.374-2.358-3.684-5.5-3.689-8.847l-.188-115.683c17.476-3.122 31.286-16.932 34.406-34.409h133.148c3.12 17.477 16.929 31.287 34.405 34.409l-.188 115.684c-.005 3.347-1.315 6.488-3.689 8.847-2.359 2.345-5.484 3.633-8.809 3.633-.021 0-.041 0-.062 0l-20.054-.095c-.012 0-.023 0-.036 0-4.125 0-7.479 3.335-7.499 7.465-.02 4.142 3.322 7.516 7.465 7.535l20.053.095h.135c7.312 0 14.189-2.835 19.38-7.992 5.222-5.189 8.104-12.102 8.116-19.464l.188-115.705c17.329-3.092 31.057-16.691 34.333-33.956l35.496.123h.087c15.123 0 27.451-12.281 27.498-27.415l.162-52.19c.013-4.145-3.334-7.513-7.476-7.526zm-314.563 106.637c-15.21 0-27.584-12.375-27.584-27.585s12.375-27.585 27.584-27.585c15.21 0 27.585 12.375 27.585 27.585s-12.374 27.585-27.585 27.585zm216.967 0c-15.21 0-27.584-12.375-27.584-27.585s12.374-27.585 27.584-27.585 27.585 12.375 27.585 27.585-12.375 27.585-27.585 27.585z" fill="#8d3804"/><path d="m318.819 312.459c4.143 0 7.5-3.357 7.5-7.5s-3.357-7.5-7.5-7.5h-22.32c-4.143 0-7.5 3.357-7.5 7.5s3.357 7.5 7.5 7.5z" fill="#8d3804"/><path d="m193.181 341.833h125.638c4.143 0 7.5-3.357 7.5-7.5s-3.357-7.5-7.5-7.5h-125.638c-4.142 0-7.5 3.357-7.5 7.5s3.358 7.5 7.5 7.5z" fill="#8d3804"/><path d="m193.214 312.459h.072c4.109 0 7.459-3.312 7.498-7.43.039-4.142-3.287-7.531-7.429-7.57l-.104-.001c-4.094-.033-7.531 3.287-7.57 7.43-.039 4.142 3.287 7.531 7.429 7.57z" fill="#8d3804"/><path d="m219.192 312.459h.072c4.109 0 7.459-3.312 7.498-7.43.039-4.142-3.287-7.531-7.429-7.57l-.104-.001c-4.115-.033-7.531 3.287-7.57 7.43-.039 4.142 3.287 7.531 7.429 7.57z" fill="#8d3804"/><path d="m245.171 312.459h.072c4.109 0 7.459-3.312 7.498-7.43.039-4.142-3.287-7.531-7.429-7.57l-.103-.001c-4.136-.033-7.531 3.287-7.57 7.43-.039 4.142 3.287 7.531 7.429 7.57z" fill="#8d3804"/></g></g></svg>