<svg xmlns="http://www.w3.org/2000/svg" id="Capa_1" enable-background="new 0 0 511.998 511.998" height="512" viewBox="0 0 511.998 511.998" width="512"><g><path d="m504.496 279.562h-62.125c-4.143 0-7.5 3.357-7.5 7.5 0 28.201-7.939 54.583-21.699 77.028l-10.918-18.687c-1.345-2.302-3.81-3.717-6.476-3.717h-92.014c-4.143 0-7.5 3.357-7.5 7.5s3.357 7.5 7.5 7.5h87.709l12.275 21.009c-27.069 34.771-69.311 57.177-116.688 57.177-4.143 0-7.5 3.357-7.5 7.5v62.125c0 4.143 3.357 7.5 7.5 7.5 92.695 0 174.001-56.373 208.155-139.536 1.574-3.832-.257-8.214-4.088-9.787-3.832-1.572-8.214.258-9.787 4.088-30.872 75.173-103.217 127.171-186.78 130.104v-47.164c47.009-2.143 88.886-24.318 117.274-58.167l8.53 14.6c2.095 3.587 6.694 4.776 10.259 2.692 3.577-2.09 4.782-6.683 2.692-10.259l-11.673-19.979c16.486-24.164 26.641-52.976 28.057-84.026h47.164c-.485 13.744-2.302 27.39-5.418 40.665-.946 4.032 1.556 8.068 5.588 9.016 4.025.942 8.068-1.555 9.016-5.588 3.945-16.81 5.946-34.167 5.946-51.593.001-4.144-3.356-7.501-7.499-7.501z" fill="#8d3804"/><path d="m255.998 403.811c-57.587 0-110.338-33.826-134.389-86.176-1.729-3.765-6.183-5.412-9.946-3.685-3.764 1.729-5.414 6.183-3.684 9.946 25.442 55.378 80.043 91.936 140.519 94.74v47.166c-53.262-1.878-101.537-23.694-137.576-58.193l12.003-24.007c1.853-3.705.351-8.21-3.354-10.062-3.705-1.854-8.209-.351-10.062 3.354l-9.65 19.3c-31.873-35.462-51.869-81.802-53.665-132.694h47.163c.429 9.416 1.665 18.772 3.69 27.904.776 3.497 3.876 5.878 7.315 5.878 4.801 0 8.368-4.444 7.33-9.126-2.327-10.489-3.506-21.308-3.506-32.156 0-81.504 66.308-147.812 147.812-147.812s147.812 66.308 147.812 147.812c0 4.143 3.357 7.5 7.5 7.5h62.124c4.143 0 7.5-3.357 7.5-7.5 0-85.793-47.687-159.222-116.497-197.19l29.694-43.808h110.365c4.143 0 7.5-3.357 7.5-7.5s-3.357-7.5-7.5-7.5h-114.342c-2.487 0-4.812 1.233-6.208 3.292l-32.987 48.667c-29.358-13.685-61.605-20.896-94.961-20.896-13.742 0-27.503 1.248-40.901 3.71-4.074.749-6.77 4.658-6.021 8.732.749 4.073 4.655 6.767 8.732 6.021 10.07-1.851 20.363-2.967 30.69-3.331v47.162c-83.817 3.821-151.32 71.323-155.141 155.141h-47.162c1.247-35.097 11.231-69.28 29.076-99.388 40.766-.385 73.667-33.591 73.84-74.23 3.312-.769 13.645-8.697 37.254-16.997 3.908-1.373 5.962-5.654 4.589-9.562-1.374-3.907-5.659-5.967-9.562-4.588-11.671 4.102-23.063 9.208-33.927 15.201-7.2-33.635-37.156-58.933-72.91-58.933-41.109-.002-74.555 33.444-74.555 74.555 0 35.753 25.298 65.71 58.933 72.91-18.259 33.108-27.871 70.447-27.871 108.532 0 58.021 21.82 112.689 61.578 154.633l-12.12 24.24h-73.02c-4.142 0-7.5 3.357-7.5 7.5s3.358 7.5 7.5 7.5h77.656c2.841 0 5.438-1.605 6.708-4.146l12.013-24.025c41.602 38.27 95.251 59.233 152.122 59.233 4.143 0 7.5-3.357 7.5-7.5v-62.124c-.001-4.143-3.358-7.5-7.501-7.5zm82.975-320.801c3.444 2.335 8.103 1.413 10.416-2l6.517-9.614c63.416 34.457 107.2 100.641 109.896 177.104h-47.163c-3.821-83.819-71.321-151.321-155.141-155.14v-47.163c28.017.989 54.654 7.493 78.856 18.458l-5.381 7.939c-2.325 3.428-1.429 8.092 2 10.416zm-227.179 37.996-23.85-38.948h45.699c-1.98 15.692-10.091 29.502-21.849 38.948zm21.849-53.948h-51.586v-51.587c26.855 3.389 48.197 24.731 51.586 51.587zm-118.643 7.5c0-30.3 22.744-55.387 52.057-59.087.386 62.521-.865 59.788 1.104 63.004l30.853 50.384c-39.121 17.689-84.014-11.005-84.014-54.301z" fill="#8d3804"/><path d="m310.092 271.53c0-4.143-3.357-7.5-7.5-7.5h-8.031v-23.562c0-4.143-3.357-7.5-7.5-7.5h-23.562v-8.031c0-4.143-3.357-7.5-7.5-7.5h-23.563v-13.117c0-4.143-3.358-7.5-7.5-7.5h-31.062c-4.142 0-7.5 3.357-7.5 7.5v13.117h-23.562c-4.142 0-7.5 3.357-7.5 7.5v39.094h-8.031c-4.142 0-7.5 3.357-7.5 7.5s3.358 7.5 7.5 7.5h155.312c4.141-.001 7.499-3.358 7.499-7.501zm-30.531-23.562v16.062h-16.062v-16.062zm-31.063-15.531v31.594h-16.063v-31.594zm-47.124-20.618h16.062v52.211h-16.062zm-31.062 20.618h16.062v31.594h-16.062z" fill="#8d3804"/><path d="m324.122 185.844h25.062c4.143 0 7.5-3.357 7.5-7.5s-3.357-7.5-7.5-7.5h-25.062c-4.143 0-7.5 3.357-7.5 7.5s3.357 7.5 7.5 7.5z" fill="#8d3804"/><path d="m324.122 216.905h40.594c4.143 0 7.5-3.357 7.5-7.5s-3.357-7.5-7.5-7.5h-40.594c-4.143 0-7.5 3.357-7.5 7.5s3.357 7.5 7.5 7.5z" fill="#8d3804"/><path d="m417.841 46.063h24.983c4.143 0 7.5-3.357 7.5-7.5s-3.357-7.5-7.5-7.5h-24.983c-4.143 0-7.5 3.357-7.5 7.5s3.357 7.5 7.5 7.5z" fill="#8d3804"/><path d="m417.841 77.125h55.593c4.143 0 7.5-3.357 7.5-7.5s-3.357-7.5-7.5-7.5h-55.593c-4.143 0-7.5 3.357-7.5 7.5s3.357 7.5 7.5 7.5z" fill="#8d3804"/><path d="m511.996 38.563c0-4.143-3.357-7.5-7.5-7.5h-31.062c-4.143 0-7.5 3.357-7.5 7.5s3.357 7.5 7.5 7.5h31.062c4.143 0 7.5-3.357 7.5-7.5z" fill="#8d3804"/><path d="m7.5 480.935h15.531c4.142 0 7.5-3.357 7.5-7.5s-3.358-7.5-7.5-7.5h-15.531c-4.142 0-7.5 3.357-7.5 7.5s3.358 7.5 7.5 7.5z" fill="#8d3804"/><path d="m85.156 465.935h-31.063c-4.142 0-7.5 3.357-7.5 7.5s3.358 7.5 7.5 7.5h31.062c4.142 0 7.5-3.357 7.5-7.5s-3.357-7.5-7.499-7.5z" fill="#8d3804"/><path d="m85.156 496.997h-77.656c-4.142 0-7.5 3.357-7.5 7.5s3.358 7.5 7.5 7.5h77.656c4.142 0 7.5-3.357 7.5-7.5s-3.358-7.5-7.5-7.5z" fill="#8d3804"/><path d="m214.641 302.593c0-4.143-3.358-7.5-7.5-7.5h-44.33c-4.142 0-7.5 3.357-7.5 7.5s3.358 7.5 7.5 7.5h44.33c4.142 0 7.5-3.358 7.5-7.5z" fill="#8d3804"/><path d="m240.467 295.093c-4.142 0-7.5 3.357-7.5 7.5s3.358 7.5 7.5 7.5h27.491c4.143 0 7.5-3.357 7.5-7.5s-3.357-7.5-7.5-7.5z" fill="#8d3804"/><path d="m162.812 326.154c-4.142 0-7.5 3.357-7.5 7.5s3.358 7.5 7.5 7.5h15.531c4.142 0 7.5-3.357 7.5-7.5s-3.358-7.5-7.5-7.5z" fill="#8d3804"/><path d="m271.529 326.154h-62.125c-4.142 0-7.5 3.357-7.5 7.5s3.358 7.5 7.5 7.5h62.125c4.143 0 7.5-3.357 7.5-7.5s-3.357-7.5-7.5-7.5z" fill="#8d3804"/><path d="m337.566 306.6c3.726 2.406 6.713 3.621 9.963 4.203 1.676 8.472 14.154 7.795 14.833-.87 17.566-6.507 19.858-32.02.618-38.823-4.312-1.523-9.606-3.546-12.307-5.662-.164-.174-.428-1.08-.104-2.293 1.035-3.88 7.343-3.782 9.847-1.5 2.997 2.76 7.67 2.548 10.432-.447l.132-.143c2.792-3.027 2.577-7.751-.48-10.512-2.109-1.572-3.649-3.09-8.116-4.434v-.399c0-4.143-3.357-7.5-7.5-7.5s-7.5 3.357-7.5 7.5v.841c-13.059 4.91-16.011 22.812-5.975 30.683 11.027 8.648 21.234 6.119 20.002 13.453-.347 2.062-2.122 5.558-6.577 5.587-4.759.033-5.86-.144-9.312-2.401-3.711-2.427-8.775-1.143-10.825 2.942-1.731 3.452-.376 7.68 2.869 9.775z" fill="#8d3804"/><path d="m303.768 387.749c4.743 0 8.282-4.384 7.351-8.971-.79-3.688-3.919-6.029-7.352-6.029-4.176 0-7.499 3.388-7.499 7.5 0 4.122 3.344 7.5 7.5 7.5z" fill="#8d3804"/><path d="m364.716 387.748c4.143 0 7.5-3.357 7.5-7.5s-3.357-7.5-7.5-7.5h-29.89c-4.143 0-7.5 3.357-7.5 7.5s3.357 7.5 7.5 7.5z" fill="#8d3804"/><path d="m283.744 206.626c4.106.695 7.961-2.069 8.654-6.133.696-4.083-2.049-7.957-6.133-8.654-24.244-4.136-45.749-16.153-60.551-33.84-2.658-3.177-7.39-3.598-10.565-.938-3.177 2.658-3.596 7.389-.938 10.564 17.087 20.416 41.781 34.267 69.533 39.001z" fill="#8d3804"/><path d="m504.498 77.129c3.994 0 7.5-3.254 7.5-7.5 0-4.055-3.297-7.51-7.5-7.51-4.202 0-7.5 3.422-7.5 7.51 0 4.286 3.529 7.5 7.5 7.5z" fill="#8d3804"/></g></svg>