<?xml version="1.0" encoding="UTF-8"?><svg id="Layer_2" xmlns="http://www.w3.org/2000/svg" xmlns:xlink="http://www.w3.org/1999/xlink" viewBox="0 0 954.35 821.03"><defs><style>.cls-1{fill:url(#linear-gradient);stroke-width:0px;}</style><linearGradient id="linear-gradient" x1="926.11" y1="-14.78" x2="87.53" y2="823.79" gradientUnits="userSpaceOnUse"><stop offset=".21" stop-color="#8d3804"/><stop offset="1" stop-color="#cd8d58"/></linearGradient></defs><g id="Layer_1-2"><path class="cls-1" d="m552.58,421.26h0c-29.64-29.64-29.64-77.68,0-107.32L824.8,41.72c29.64-29.64,77.68-29.64,107.32,0h0c29.64,29.64,29.64,77.68,0,107.32l-272.22,272.22c-29.64,29.64-77.68,29.64-107.32,0Zm17.7-144.46l202.56-202.56c16.98-16.98,16.98-44.51,0-61.49h0c-16.98-16.98-44.51-16.98-61.49,0l-202.56,202.56c-16.98,16.98-16.98,44.51,0,61.49h0c16.98,16.98,44.51,16.98,61.49,0Zm117.36,212.39l229.82-229.82c9.75-9.75,9.75-25.55,0-35.3h0c-9.75-9.75-25.55-9.75-35.3,0l-229.82,229.82c-9.75,9.75-9.75,25.55,0,35.3h0c9.75,9.75,25.55,9.75,35.3,0Zm-37.74,111.22l245.82-245.82c5.27-5.27,5.27-13.82,0-19.1h0c-5.27-5.27-13.82-5.27-19.1,0l-245.82,245.82c-5.27,5.27-5.27,13.82,0,19.1h0c5.27,5.27,13.82,5.27,19.1,0Zm-385.36,135.69l176.33-176.33c24.32-24.32,24.32-63.76,0-88.09h0c-24.32-24.32-63.76-24.32-88.09,0l-176.33,176.33c-24.32,24.32-24.32,63.76,0,88.09h0c24.32,24.32,63.76,24.32,88.09,0Zm-190.32-10.45l202.56-202.56c16.98-16.98,16.98-44.51,0-61.49h0c-16.98-16.98-44.51-16.98-61.49,0L12.74,664.15c-16.98,16.98-16.98,44.51,0,61.49h0c16.98,16.98,44.51,16.98,61.49,0Zm234.91,86.89l224.11-224.11c11.33-11.33,11.33-29.69,0-41.01h0c-11.33-11.33-29.69-11.33-41.01,0l-224.11,224.11c-11.33,11.33-11.33,29.69,0,41.01h0c11.33,11.33,29.69,11.33,41.01,0Zm-247.67-233.35l229.44-229.44c9.41-9.41,9.41-24.66,0-34.07l-.09-.09c-9.41-9.41-24.66-9.41-34.07,0L27.31,545.02c-9.41,9.41-9.41,24.66,0,34.07l.09.09c9.41,9.41,24.66,9.41,34.07,0Z"/></g></svg>